# xmcd CD database file
#
# Track frame offsets:
#	150
#	15464
#	29195
#	43370
#	57102
#	75482
#	88417
#	103025
#	116449
#	129600
#	141939
#	153963
#
# Disc length: 2214 seconds
#
# Revision: 0
# Processed by: cddbd v1.5.2PL0 Copyright (c) Steve Scherf et al.
# Submitted via: CDex 1.51
#
DISCID=a208a40c
DTITLE=Charlie Parker - Masters of Jazz
DYEAR=2006
DGENRE=Jazz
TTITLE0=Now's the time
TTITLE1=Ornithology
TTITLE2=Steeplechase
TTITLE3=Donna Lee
TTITLE4=Out of Nowhere
TTITLE5=Scrapple from the apple
TTITLE6=Bird of paradise
TTITLE7=Quasimodo
TTITLE8=Ah Leu Cha
TTITLE9=Marmaduke
TTITLE10=Bird gets the worm
TTITLE11=Yardbird suite
EXTD=YEAR: 2006
EXTT0=
EXTT1=
EXTT2=
EXTT3=
EXTT4=
EXTT5=
EXTT6=
EXTT7=
EXTT8=
EXTT9=
EXTT10=
EXTT11=
PLAYORDER=
